<svg version="1.0" xmlns="http://www.w3.org/2000/svg"
 width="709.000000pt" height="709.000000pt" viewBox="0 0 709.000000 709.000000"
 preserveAspectRatio="xMidYMid meet">
<metadata>
Created by potrace 1.14, written by Peter Selinger 2001-2017
</metadata>
<g transform="translate(0.000000,709.000000) scale(0.100000,-0.100000)"
fill="#000000" stroke="none">
<path d="M3270 7030 c-1145 -100 -2139 -718 -2725 -1695 -259 -431 -411 -888
-477 -1430 -19 -155 -16 -592 6 -760 104 -824 456 -1536 1037 -2100 578 -561
1317 -902 2114 -975 256 -23 656 -8 908 35 1454 250 2602 1398 2852 2852 43
252 58 652 35 908 -93 1006 -614 1917 -1440 2516 -468 340 -1009 553 -1600
630 -179 23 -545 33 -710 19z m290 -1860 c848 -67 1547 -244 2145 -542 296
-148 346 -191 381 -330 38 -147 -34 -296 -175 -365 -48 -24 -68 -28 -141 -28
l-85 0 -140 76 c-552 299 -1174 468 -1995 541 -194 17 -840 17 -1030 0 -331
-30 -621 -79 -879 -148 -209 -57 -312 -43 -412 57 -119 119 -124 314 -12 439
63 71 117 94 337 150 346 88 724 140 1191 164 124 6 676 -3 815 -14z m-166
-1200 c742 -63 1454 -275 2011 -601 121 -70 169 -120 191 -197 40 -136 -40
-289 -173 -333 -19 -6 -65 -9 -101 -7 -62 3 -78 10 -222 90 -316 176 -618 292
-1007 387 -729 179 -1559 181 -2223 5 -205 -55 -211 -56 -264 -49 -88 11 -159
59 -202 137 -25 45 -29 64 -29 128 0 65 4 82 31 130 45 79 92 111 220 148 304
89 674 150 1040 172 170 10 550 5 728 -10z m86 -1145 c554 -59 1038 -211 1494
-468 159 -90 201 -144 194 -253 -5 -84 -41 -138 -118 -177 -85 -44 -129 -36
-287 54 -787 445 -1731 549 -2869 314 -116 -24 -172 -31 -200 -26 -110 21
-174 98 -174 211 0 89 37 152 110 190 96 49 690 145 1055 170 179 12 620 4
795 -15z"/>
</g>
</svg>
